<?xml version="1.0" encoding="utf-8"?>
<!-- Generator: Adobe Illustrator 19.2.0, SVG Export Plug-In . SVG Version: 6.00 Build 0)  -->
<svg version="1.1" xmlns="http://www.w3.org/2000/svg" xmlns:xlink="http://www.w3.org/1999/xlink" x="0px" y="0px"
	 viewBox="0 0 800 800" style="enable-background:new 0 0 800 800;" xml:space="preserve">
<style type="text/css">
	.st0{display:none;}
	.st1{display:inline;}
	.st2{fill:#857A63;}
	.st3{display:inline;fill:#857A63;}
	.st4{font-family:'PFDinDisplayPro-Bold';}
	.st5{font-size:43.6977px;}
	.st6{letter-spacing:6;}
</style>
<g id="mark">
	<path id="XMLID_2_" d="M494.6,301c-23.4-20-52.9-26.7-78.5-26.7c-33.9,0-71.2,18.9-71.2,69.5v111.8c0,50.1,37.8,69.6,71.2,69.6
		c25.6,0,52.3-6.1,79-26.7l36.2,59c-28.4,23.9-71.2,37.8-116.3,37.8c-72.3,0-146.3-41.2-146.3-123.5V328.2
		c0-81.8,72.9-123.5,145.2-123.5c44,0,87.9,11.7,117.4,37.3L494.6,301z"/>
</g>
<g id="type" class="st0">
	<g class="st1">
		<path d="M206.4,372.5c-4.3-3.7-9.8-4.9-14.5-4.9c-6.3,0-13.2,3.5-13.2,12.9v20.7c0,9.3,7,12.9,13.2,12.9c4.7,0,9.7-1.1,14.6-4.9
			l6.7,10.9c-5.3,4.4-13.2,7-21.6,7c-13.4,0-27.1-7.6-27.1-22.9v-26.6c0-15.2,13.5-22.9,26.9-22.9c8.1,0,16.3,2.2,21.8,6.9
			L206.4,372.5z"/>
		<path d="M249.9,422.1c-6.2,3.6-11,4.6-15.3,4.6c-10.4,0-16.4-6-16.4-15.6c0-11.2,10.5-15.5,18.6-15.5H250v-2.2
			c0-4.7-2.5-7.2-9.4-7.2c-3.3,0-8.6,0.4-13.5,4.4l-5.9-9.6c7.2-5.6,14.6-6.6,20.7-6.6c14.5,0,21.2,6.6,21.2,19.9v31.9h-12.1
			l-0.9-4.1L249.9,422.1z M250.1,405.4h-10.9c-3.2,0-6.8,0.7-6.8,4.9c0,2.7,2.1,4.6,6,4.6c4.4,0,9.1-2.2,11.8-3.7V405.4z"/>
		<path d="M283.4,409.9c0,4.5,1.1,5.3,6.9,5.4l0.2,11c-2.3,0.4-4.4,0.5-6.3,0.5c-12.4,0-13.9-5.8-13.9-14.4v-59.9h13.1V409.9z"/>
		<path d="M309.6,409.9c0,4.5,1.1,5.3,6.9,5.4l0.2,11c-2.3,0.4-4.4,0.5-6.3,0.5c-12.4,0-13.9-5.8-13.9-14.4v-59.9h13.1V409.9z"/>
		<path d="M329.6,354.1c4,0,7.3,3.3,7.3,7.4s-3.3,7.3-7.3,7.3s-7.3-3.2-7.3-7.3S325.6,354.1,329.6,354.1z M323.1,426.3v-50.9h13.1
			v50.9H323.1z"/>
		<path d="M365.7,447.5c-6.5,0-14.5-1.8-20.5-8.3l8.5-8.7c3.2,3.7,9.2,4.8,12.1,4.8c5.6,0,10.3-2.4,10.3-8.9v-4.9
			c-6,3.6-11.3,4.5-14.9,4.5c-11.3,0-16.7-7.2-16.7-18.4v-14.3c0-12,6.5-18.8,17.1-18.8c3.6,0,8.8,1.2,14.4,4.8l1-4.2h12.2v53.7
			C389.3,441.8,376.2,447.5,365.7,447.5z M357.7,406.1c0,5.8,2.8,7.7,6.5,7.7c3.3,0,7.7-1.9,11.9-4.4v-17.8
			c-3.6-2.6-8.5-4.5-11.9-4.5c-3.6,0-6.5,2.3-6.5,7.8V406.1z"/>
		<path d="M429.4,388c-9,0.8-14.4,2.9-19.2,5.8v32.5h-13.1v-51.2h12.1l0.9,7.5h0.1c3.7-3.6,12.1-8.1,19.2-8.1V388z"/>
		<path d="M440.9,354.1c4,0,7.3,3.3,7.3,7.4s-3.3,7.3-7.3,7.3c-4,0-7.3-3.2-7.3-7.3S436.9,354.1,440.9,354.1z M434.4,426.3v-50.9
			h13.1v50.9H434.4z"/>
		<path d="M453,386v-10.6h6.6l2.3-12.8h10.5v12.8h12.4V386h-12.4v21.2c0,4.7,0.9,7.7,6.7,7.7c1.9,0,4.4-0.3,7.4-1.1l2.4,11.1
			c-4.3,1.6-9.6,2-12.9,2c-13.3,0-16.6-7.6-16.6-18.2V386H453z"/>
		<path d="M498.1,446.8l7.8-21.7l-3-2.3l-14-47.8h13.5l4.7,19.3l4.4,17h0.3l5.7-17.2l6.2-19.1h13.6l-26.1,71.7H498.1z"/>
		<path d="M586.2,408.7c0,11.1-6.2,18.6-17.9,18.6c-3.5,0-8.8-0.4-13.7-3V447h-13.1v-71.4h12.1l1,4.6c5.8-3.5,11-5.2,14.6-5.2
			c10.9,0,17,6,17,18.7V408.7z M572.9,394.9c0-5.9-2.9-7.6-6.4-7.6c-3.2,0-8.5,2.1-12,4.4V412c4.6,2.2,7.8,2.8,11,2.8
			c4,0.1,7.3-2,7.3-7.7V394.9z"/>
		<path d="M604.9,404.9v1.7c0,6.1,4.4,8.7,9.3,8.7c2.9,0,7.4-0.4,12.2-4.2l7.2,9c-6.3,6-12.6,7.1-19.2,7.1c-12,0-22.6-6-22.6-18.8
			v-13.2c0-12.8,9.8-20.1,21.8-20.1c12.7,0,21.9,7.2,21.9,19.9v10H604.9z M613.7,387c-4.7,0-8.8,3.2-8.8,8.8v0.6h17.4v-1
			C622.4,389.6,618.3,387,613.7,387z"/>
	</g>
</g>
<g id="weekly" class="st0">
	<g class="st1">
		<path d="M163,360.9c-4.3-3.7-9.8-4.9-14.5-4.9c-6.3,0-13.2,3.5-13.2,12.9v20.7c0,9.3,7,12.9,13.2,12.9c4.7,0,9.7-1.1,14.6-4.9
			l6.7,10.9c-5.3,4.4-13.2,7-21.6,7c-13.4,0-27.1-7.6-27.1-22.9V366c0-15.2,13.5-22.9,26.9-22.9c8.1,0,16.3,2.2,21.8,6.9L163,360.9z
			"/>
		<path d="M206.5,410.5c-6.2,3.6-11,4.6-15.3,4.6c-10.4,0-16.4-6-16.4-15.6c0-11.2,10.5-15.5,18.6-15.5h13.2V382
			c0-4.7-2.5-7.2-9.4-7.2c-3.3,0-8.6,0.4-13.5,4.4l-5.9-9.6c7.2-5.6,14.6-6.6,20.7-6.6c14.5,0,21.2,6.6,21.2,19.9v31.9h-12.1
			l-0.9-4.1L206.5,410.5z M206.7,393.8h-10.9c-3.2,0-6.8,0.7-6.8,4.9c0,2.7,2.1,4.6,6,4.6c4.4,0,9.1-2.2,11.8-3.7V393.8z"/>
		<path d="M240,398.4c0,4.5,1.1,5.3,6.9,5.4l0.2,11c-2.3,0.4-4.4,0.5-6.3,0.5c-12.4,0-13.9-5.8-13.9-14.4v-59.9H240V398.4z"/>
		<path d="M266.2,398.4c0,4.5,1.1,5.3,6.9,5.4l0.2,11c-2.3,0.4-4.4,0.5-6.3,0.5c-12.4,0-13.9-5.8-13.9-14.4v-59.9h13.1V398.4z"/>
		<path d="M286.2,342.6c4,0,7.3,3.3,7.3,7.4s-3.3,7.3-7.3,7.3c-4,0-7.3-3.2-7.3-7.3S282.2,342.6,286.2,342.6z M279.7,414.8v-50.9
			h13.1v50.9H279.7z"/>
		<path d="M322.4,436c-6.5,0-14.5-1.8-20.5-8.3l8.5-8.7c3.2,3.7,9.2,4.8,12.1,4.8c5.6,0,10.3-2.4,10.3-8.9v-4.9
			c-6,3.6-11.3,4.5-14.9,4.5c-11.3,0-16.7-7.2-16.7-18.4V382c0-12,6.5-18.8,17.1-18.8c3.6,0,8.8,1.2,14.4,4.8l1-4.2h12.2v53.7
			C345.9,430.2,332.8,436,322.4,436z M314.3,394.5c0,5.8,2.8,7.7,6.5,7.7c3.3,0,7.7-1.9,11.9-4.4V380c-3.6-2.6-8.5-4.5-11.9-4.5
			c-3.6,0-6.5,2.3-6.5,7.8V394.5z"/>
		<path d="M386,376.5c-9,0.8-14.4,2.9-19.2,5.8v32.5h-13.1v-51.2h12.1l0.9,7.5h0.1c3.7-3.6,12.1-8.1,19.2-8.1V376.5z"/>
		<path d="M397.5,342.6c4,0,7.3,3.3,7.3,7.4s-3.3,7.3-7.3,7.3c-4,0-7.3-3.2-7.3-7.3S393.5,342.6,397.5,342.6z M391,414.8v-50.9h13.1
			v50.9H391z"/>
		<path d="M409.6,374.4v-10.6h6.6l2.3-12.8H429v12.8h12.4v10.6H429v21.2c0,4.7,0.9,7.7,6.7,7.7c1.9,0,4.4-0.3,7.4-1.1l2.4,11.1
			c-4.3,1.6-9.6,2-12.9,2c-13.3,0-16.6-7.6-16.6-18.2v-22.8H409.6z"/>
		<path d="M454.7,435.3l7.8-21.7l-3-2.3l-14-47.8H459l4.7,19.3l4.4,17h0.3l5.7-17.2l6.2-19.1H494l-26.1,71.7H454.7z"/>
		<path d="M542.8,397.2c0,11.1-6.2,18.6-17.9,18.6c-3.5,0-8.8-0.4-13.7-3v22.7H498v-71.4h12.1l1,4.6c5.8-3.5,11-5.2,14.6-5.2
			c10.9,0,17,6,17,18.7V397.2z M529.5,383.4c0-5.9-2.9-7.6-6.4-7.6c-3.2,0-8.5,2.1-12,4.4v20.3c4.6,2.2,7.8,2.8,11,2.8
			c4,0.1,7.3-2,7.3-7.7V383.4z"/>
		<path d="M561.6,393.4v1.7c0,6.1,4.4,8.7,9.3,8.7c2.9,0,7.4-0.4,12.2-4.2l7.2,9c-6.3,6-12.6,7.1-19.2,7.1c-12,0-22.6-6-22.6-18.8
			v-13.2c0-12.8,9.8-20.1,21.8-20.1c12.7,0,21.9,7.2,21.9,19.9v10H561.6z M570.3,375.4c-4.7,0-8.8,3.2-8.8,8.8v0.6H579v-1
			C579,378.1,575,375.4,570.3,375.4z"/>
	</g>
	<g class="st1">
		<g>
			<path class="st2" d="M544,439.3l-2.1,8.5l-2.8,11.3h-6.6l-7.7-30h6.4l2.6,11.8l2,9.3h0.3l2.3-9.4l3-11.8h5.6l3.1,12.4l2.2,8.8
				h0.3l1.9-8.8l2.7-12.3h6.4l-7.8,30h-6.5l-2.8-11.3l-2.2-8.5H544z"/>
			<path class="st2" d="M573.1,429.1h20.7v5.4h-14.7v6.9h12.6v5.4h-12.6v7.1h14.7v5.3h-20.7V429.1z"/>
			<path class="st2" d="M604.8,429.1h20.7v5.4h-14.7v6.9h12.6v5.4h-12.6v7.1h14.7v5.3h-20.7V429.1z"/>
			<path class="st2" d="M642.5,442c1.7-1.9,3.3-3.9,4.9-5.8l5.9-7.1h7.1l-10,12.1l10.7,17.9h-7l-7.6-13.2c-1.4,1.6-2.8,3.2-4.1,4.8
				v8.4h-6v-30h6V442H642.5z"/>
			<path class="st2" d="M670.4,459.1v-30h5.9v24.7h14.8v5.3H670.4z"/>
			<path class="st2" d="M705.9,441.6l2.5-5.8l3-6.7h6.4l-9.1,18.2v11.8h-6v-11.8l-9.1-18.2h6.4l3.1,6.9l2.5,5.7H705.9z"/>
		</g>
	</g>
</g>
<g id="insider" class="st0">
	<g class="st1">
		<path d="M163,360.9c-4.3-3.7-9.8-4.9-14.5-4.9c-6.3,0-13.2,3.5-13.2,12.9v20.7c0,9.3,7,12.9,13.2,12.9c4.7,0,9.7-1.1,14.6-4.9
			l6.7,10.9c-5.3,4.4-13.2,7-21.6,7c-13.4,0-27.1-7.6-27.1-22.9V366c0-15.2,13.5-22.9,26.9-22.9c8.1,0,16.3,2.2,21.8,6.9L163,360.9z
			"/>
		<path d="M206.5,410.5c-6.2,3.6-11,4.6-15.3,4.6c-10.4,0-16.4-6-16.4-15.6c0-11.2,10.5-15.5,18.6-15.5h13.2V382
			c0-4.7-2.5-7.2-9.4-7.2c-3.3,0-8.6,0.4-13.5,4.4l-5.9-9.6c7.2-5.6,14.6-6.6,20.7-6.6c14.5,0,21.2,6.6,21.2,19.9v31.9h-12.1
			l-0.9-4.1L206.5,410.5z M206.7,393.8h-10.9c-3.2,0-6.8,0.7-6.8,4.9c0,2.7,2.1,4.6,6,4.6c4.4,0,9.1-2.2,11.8-3.7V393.8z"/>
		<path d="M240,398.4c0,4.5,1.1,5.3,6.9,5.4l0.2,11c-2.3,0.4-4.4,0.5-6.3,0.5c-12.4,0-13.9-5.8-13.9-14.4v-59.9H240V398.4z"/>
		<path d="M266.2,398.4c0,4.5,1.1,5.3,6.9,5.4l0.2,11c-2.3,0.4-4.4,0.5-6.3,0.5c-12.4,0-13.9-5.8-13.9-14.4v-59.9h13.1V398.4z"/>
		<path d="M286.2,342.6c4,0,7.3,3.3,7.3,7.4s-3.3,7.3-7.3,7.3c-4,0-7.3-3.2-7.3-7.3S282.2,342.6,286.2,342.6z M279.7,414.8v-50.9
			h13.1v50.9H279.7z"/>
		<path d="M322.4,436c-6.5,0-14.5-1.8-20.5-8.3l8.5-8.7c3.2,3.7,9.2,4.8,12.1,4.8c5.6,0,10.3-2.4,10.3-8.9v-4.9
			c-6,3.6-11.3,4.5-14.9,4.5c-11.3,0-16.7-7.2-16.7-18.4V382c0-12,6.5-18.8,17.1-18.8c3.6,0,8.8,1.2,14.4,4.8l1-4.2h12.2v53.7
			C345.9,430.2,332.8,436,322.4,436z M314.3,394.5c0,5.8,2.8,7.7,6.5,7.7c3.3,0,7.7-1.9,11.9-4.4V380c-3.6-2.6-8.5-4.5-11.9-4.5
			c-3.6,0-6.5,2.3-6.5,7.8V394.5z"/>
		<path d="M386,376.5c-9,0.8-14.4,2.9-19.2,5.8v32.5h-13.1v-51.2h12.1l0.9,7.5h0.1c3.7-3.6,12.1-8.1,19.2-8.1V376.5z"/>
		<path d="M397.5,342.6c4,0,7.3,3.3,7.3,7.4s-3.3,7.3-7.3,7.3c-4,0-7.3-3.2-7.3-7.3S393.5,342.6,397.5,342.6z M391,414.8v-50.9h13.1
			v50.9H391z"/>
		<path d="M409.6,374.4v-10.6h6.6l2.3-12.8H429v12.8h12.4v10.6H429v21.2c0,4.7,0.9,7.7,6.7,7.7c1.9,0,4.4-0.3,7.4-1.1l2.4,11.1
			c-4.3,1.6-9.6,2-12.9,2c-13.3,0-16.6-7.6-16.6-18.2v-22.8H409.6z"/>
		<path d="M454.7,435.3l7.8-21.7l-3-2.3l-14-47.8H459l4.7,19.3l4.4,17h0.3l5.7-17.2l6.2-19.1H494l-26.1,71.7H454.7z"/>
		<path d="M542.8,397.2c0,11.1-6.2,18.6-17.9,18.6c-3.5,0-8.8-0.4-13.7-3v22.7H498v-71.4h12.1l1,4.6c5.8-3.5,11-5.2,14.6-5.2
			c10.9,0,17,6,17,18.7V397.2z M529.5,383.4c0-5.9-2.9-7.6-6.4-7.6c-3.2,0-8.5,2.1-12,4.4v20.3c4.6,2.2,7.8,2.8,11,2.8
			c4,0.1,7.3-2,7.3-7.7V383.4z"/>
		<path d="M561.6,393.4v1.7c0,6.1,4.4,8.7,9.3,8.7c2.9,0,7.4-0.4,12.2-4.2l7.2,9c-6.3,6-12.6,7.1-19.2,7.1c-12,0-22.6-6-22.6-18.8
			v-13.2c0-12.8,9.8-20.1,21.8-20.1c12.7,0,21.9,7.2,21.9,19.9v10H561.6z M570.3,375.4c-4.7,0-8.8,3.2-8.8,8.8v0.6H579v-1
			C579,378.1,575,375.4,570.3,375.4z"/>
	</g>
	<text transform="matrix(1 0 0 1 524.2832 459.088)" class="st3 st4 st5 st6">INSIDER</text>
</g>
</svg>
